<?xml version="1.0" encoding="utf-8"?>
<!-- Generator: Adobe Illustrator 24.1.3, SVG Export Plug-In . SVG Version: 6.00 Build 0)  -->
<svg version="1.1" id="图层_1" xmlns="http://www.w3.org/2000/svg" xmlns:xlink="http://www.w3.org/1999/xlink" x="0px" y="0px"
	 viewBox="0 0 64 40" style="enable-background:new 0 0 64 40;" xml:space="preserve">
<style type="text/css">
	.st0{fill:#211F1F;}
	.st1{fill:#EE1A6E;}
</style>
<g transform="matrix(.22133071 0 0 .22133071 .011067 18.431927)">
	<g>
		<path class="st0" d="M0-54.2c9.5,0,18.9,0.1,28.4,0c1.7-0.2,3.4,0.7,4,2.3c11,21.7,22.1,43.3,33,65c2.3,4.6,4.1,9.6,6.2,14.3
			c0.2,0.6,0.6,1.2,1.1,1.7C70.8,1.5,72-26.2,71.6-54h24.5V64.6c-0.7,0-1.4,0.1-2.2,0.1c-8.8,0-17.5,0-26.3,0
			c-1.1,0.1-2.2-0.5-2.7-1.5c-9.4-18.3-19.2-36.6-28.3-55c-4.5-9.1-8-18.6-12-27.9c-0.2-0.7-0.6-1.3-1.1-1.8
			c2.2,28.6,1.1,57.3,1.4,86c-0.4,0.1-0.9,0.2-1.3,0.2c-7.4,0-14.8,0-22.3,0c-0.5,0-1-0.1-1.5-0.2L0-54.2z"/>
		<path class="st0" d="M146.7,68.4c-3.1-0.4-6.2-0.8-9.3-1.3c-9.7-1.7-18.7-5.2-26.4-11.5c-0.7-0.6-1.3-1.2-2.1-2
			c4.9-7.2,9.8-14.2,14.4-20.9c4.7,3.2,8.9,6.8,13.7,9.4c7.2,4,15.1,5.6,23.2,3.3c7.3-2,10.9-9.3,7.3-15.1c-1.5-2.3-3.5-4.3-5.8-5.6
			c-5.1-2.9-10.5-5.1-15.7-7.8c-6.2-3.2-12.6-6.1-18.3-10c-19.6-13.4-17.4-40.6,0.9-53c7.4-4.9,16-7.7,24.8-7.9
			c12.9-0.5,24.7,2.4,35,10.5c0.9,0.7,1.7,1.5,2.5,2.3c0.4,0.3,0.6,0.7,1.1,1.3l-16,19.1c-3.4-4-7.2-7.2-12-9.1
			c-4.6-2-9.8-2.5-14.7-1.4c-4.1,1-7.3,3.2-8.5,7.6c-1.2,3.9,0.2,8.1,3.5,10.3c4,2.8,8.1,5.3,12.5,7.4c7.5,4,15.4,7.3,22.7,11.6
			c7.5,4.2,12.9,11.4,14.7,19.8c3.3,15.2-3.7,29.6-17.8,36.9c-6.6,3.3-13.7,5.2-21.1,5.5c-0.6,0.1-1.2,0.2-1.8,0.4L146.7,68.4z"/>
		<path class="st0" d="M251.8-53.3V64.8h-24.1v-91.2l-13.3,8.8l-10-20c4.6-3.2,9.2-6.4,13.7-9.5c2.9-2,5.7-4.9,9-5.9
			c3.3-1,7.3-0.3,10.9-0.3L251.8-53.3z"/>
	</g>
	<path class="st1" d="M275,65.3c-7.4,0.1-13.5-5.8-13.6-13.2c0-0.1,0-0.2,0-0.2c0-8,5.9-14.1,13.7-14.1c8.2,0,14.1,6,14.1,14.2
		C289.1,59.6,283.1,65.3,275,65.3z"/>
</g>
</svg>
