<?xml version="1.0" encoding="utf-8"?>
<!-- Generator: Adobe Illustrator 24.1.3, SVG Export Plug-In . SVG Version: 6.00 Build 0)  -->
<svg version="1.1" id="图层_1" xmlns="http://www.w3.org/2000/svg" xmlns:xlink="http://www.w3.org/1999/xlink" x="0px" y="0px"
	 viewBox="0 0 120 21.1" style="enable-background:new 0 0 120 21.1;" xml:space="preserve">
<path d="M39.6,0h-5.1v21h5.1L39.6,0L39.6,0z M58.8,21L46.1,0h5.8l8.9,15.3L69.2,0h5.3L62.3,21H58.8L58.8,21z M85.5,0h-5.1v21h5.1V0z
	 M118.5,1.4c-0.8-0.7-1.9-1.4-4-1.4H98.3c-2.1,0-3.2,0.7-4,1.4C93.5,2,92.8,3,92.8,5v11.1c0,2,0.7,2.9,1.5,3.6
	c0.8,0.7,1.9,1.4,4,1.4h16.3c2.1,0,3.2-0.7,3.9-1.4c0.8-0.7,1.5-1.6,1.5-3.6V5C120,3,119.3,2,118.5,1.4z M114.8,15.4
	c0,0.9-1,1.7-2.2,1.7h-12.5c-1.2,0-2.2-0.8-2.2-1.7V5.6c0-0.9,1-1.7,2.2-1.7h12.5c1.2,0,2.2,0.8,2.2,1.7
	C114.8,5.6,114.8,15.4,114.8,15.4z M0,0v21h21.7c2.1,0,3.2-0.7,3.9-1.4c0.8-0.7,1.5-1.6,1.5-3.6V5c0-2-0.7-3-1.5-3.6
	C25,0.7,23.9,0,21.7,0L0,0L0,0z M22.1,15.4c0,0.9-1,1.7-2.2,1.7H5.2V3.9h14.7c1.2,0,2.2,0.8,2.2,1.7L22.1,15.4L22.1,15.4z"/>
</svg>
