<svg data-name="Layer 1" xmlns="http://www.w3.org/2000/svg" viewBox="0 0 100 40"><path d="M0 0v2.7h19.5V0zm22.2 0v2.7H50A10.9 10.9 0 0 0 43.4 0zm33.2 0v2.7h16.8l-1-2.7zm28.8 0l-1 2.7h16.6V0zM0 5.3v2.8h19.5V5.3zm22.2 0v2.8h31a8.6 8.6 0 0 0-1-2.8zm33.2 0v2.8H74l-.9-2.8zm26.8 0l-.9 2.8h18.5V5.3zM5.6 10.6v2.8H14v-2.8zm22.2 0v2.8h8.4v-2.8zm16.6 0v2.8h8.5a10.5 10.5 0 0 0 .5-2.8zm16.6 0v2.8h14.9l-1-2.8zm19.4 0l-1 2.8h15v-2.8zM5.6 16v2.7H14V16zm22.2 0v2.7h21.5a9.7 9.7 0 0 0 2.4-2.7zM61 16v2.7h8.4v-1.5l.6 1.5h15.4l.6-1.5v1.5h8.4V16H78.6l-.9 2.3-.8-2.3zM5.6 21.3V24H14v-2.7zm22.2 0V24h23.9a9.7 9.7 0 0 0-2.4-2.7zm33.2 0V24h8.4v-2.7zm10 0l1 2.7h11.6l.9-2.7zm15 0V24h8.4v-2.7zM5.6 26.6v2.8H14v-2.8zm22.2 0v2.8h8.4v-2.8zm16.6 0v2.8h9a10.5 10.5 0 0 0-.5-2.8zm16.6 0v2.8h8.4v-2.8zm11.9 0l1 2.8h7.7l1-2.8zm13.1 0v2.8h8.4v-2.8zM.2 31.9v2.8h19.4v-2.8zm22 0v2.8h30a7.9 7.9 0 0 0 1-2.8zm33.4 0v2.8h13.8v-2.8zm19.2 0l1 2.8h4l.9-2.8zm11.2 0v2.8h14v-2.8zM.2 37.3V40h19.4v-2.7zm22 0V40h21.2a10.9 10.9 0 0 0 6.6-2.7zm33.4 0V40h13.8v-2.7zm21.1 0l1 2.7h.2l1-2.7zm9.3 0V40h14v-2.7z" fill="#404242"/></svg>