<?xml version="1.0" encoding="utf-8"?>
<!-- Generator: Adobe Illustrator 24.1.3, SVG Export Plug-In . SVG Version: 6.00 Build 0)  -->
<svg version="1.1" id="图层_1" xmlns="http://www.w3.org/2000/svg" xmlns:xlink="http://www.w3.org/1999/xlink" x="0px" y="0px"
	 viewBox="0 0 146.6 38.9" style="enable-background:new 0 0 146.6 38.9;" xml:space="preserve">
<style type="text/css">
	.st0{fill-rule:evenodd;clip-rule:evenodd;fill:#0E1E25;}
	.st1{fill:url(#SVGID_1_);}
</style>
<g>
	<path class="st0" d="M53.2,12.1l0.1,2.2c1.4-1.7,3.2-2.6,5.5-2.6c4,0,6,2.3,6,6.8v12.6h-4.3V18.8c0-1.2-0.3-2.1-0.8-2.7
		c-0.5-0.6-1.4-0.9-2.6-0.9c-1.7,0-3,0.8-3.8,2.3v13.5h-4.3v-19L53.2,12.1L53.2,12.1z M77.6,31.5c-2.7,0-4.9-0.9-6.6-2.6
		c-1.7-1.7-2.5-4-2.5-6.8v-0.5c0-1.9,0.4-3.6,1.1-5.1c0.7-1.5,1.8-2.7,3.1-3.5c1.3-0.8,2.8-1.2,4.4-1.2c2.6,0,4.6,0.8,6,2.5
		c1.4,1.7,2.1,4,2.1,7V23H72.8c0.1,1.6,0.7,2.8,1.6,3.7s2.1,1.4,3.5,1.4c2,0,3.5-0.8,4.8-2.4l2.3,2.2c-0.8,1.1-1.8,2-3,2.6
		C80.6,31.2,79.2,31.5,77.6,31.5L77.6,31.5z M77.1,15.2c-1.2,0-2.1,0.4-2.8,1.2c-0.7,0.8-1.2,2-1.4,3.4H81v-0.3
		c-0.1-1.4-0.5-2.5-1.1-3.2C79.2,15.6,78.3,15.2,77.1,15.2z M93.9,7.5v4.6h3.3v3.2h-3.3v10.6c0,0.7,0.1,1.2,0.4,1.6
		c0.3,0.3,0.8,0.5,1.5,0.5c0.5,0,1-0.1,1.5-0.2v3.3c-1,0.3-1.9,0.4-2.8,0.4c-3.3,0-4.9-1.8-4.9-5.4V15.3h-3.1v-3.2h3.1V7.5L93.9,7.5
		L93.9,7.5z M105,31.2h-4.3v-27h4.3V31.2z M114.2,31.2h-4.3v-19h4.3V31.2z M109.7,7.2c0-0.7,0.2-1.2,0.6-1.6c0.4-0.4,1-0.7,1.8-0.7
		c0.8,0,1.4,0.2,1.8,0.7c0.4,0.4,0.6,1,0.6,1.6c0,0.6-0.2,1.2-0.6,1.6c-0.4,0.4-1,0.6-1.8,0.6c-0.8,0-1.4-0.2-1.8-0.6
		C109.9,8.4,109.7,7.9,109.7,7.2L109.7,7.2z M120.3,31.2V15.3h-2.9v-3.2h2.9v-1.7c0-2.1,0.6-3.7,1.8-4.9c1.2-1.1,2.8-1.7,4.9-1.7
		c0.7,0,1.5,0.1,2.4,0.3l-0.1,3.3c-0.5-0.1-1.1-0.1-1.6-0.1c-2,0-3.1,1-3.1,3.1v1.7h3.9v3.2h-3.9v15.9L120.3,31.2L120.3,31.2z
		 M138.2,25.1l3.9-12.9h4.5l-7.5,21.9c-1.2,3.2-3.1,4.8-5.9,4.8c-0.6,0-1.3-0.1-2.1-0.3v-3.3l0.8,0.1c1.1,0,1.9-0.2,2.4-0.6
		c0.5-0.4,1-1.1,1.3-2l0.6-1.6l-6.7-18.9h4.6L138.2,25.1z"/>
	
		<radialGradient id="SVGID_1_" cx="-69.3193" cy="173.9596" r="1.0011" gradientTransform="matrix(0 38.301 44.1228 0 -7656.4277 2654.9758)" gradientUnits="userSpaceOnUse">
		<stop  offset="0" style="stop-color:#20C6B7"/>
		<stop  offset="1" style="stop-color:#4D9ABF"/>
	</radialGradient>
	<path class="st1" d="M27.8,13.3L27.8,13.3C27.7,13.3,27.7,13.3,27.8,13.3c-0.1,0-0.1-0.1-0.1-0.1l0.8-4.7l3.6,3.6l-3.8,1.6
		c0,0,0,0,0,0h0c0,0,0,0,0,0C28.1,13.5,27.9,13.4,27.8,13.3z M33,13l3.9,3.9c0.8,0.8,1.2,1.2,1.4,1.7c0,0.1,0,0.1,0.1,0.2L29,14.9
		c0,0,0,0,0,0c0,0-0.1,0-0.1-0.1s0-0.1,0.1-0.1l0,0L33,13z M38.1,20c-0.2,0.4-0.6,0.8-1.2,1.4l-4.4,4.4l-5.7-1.2l0,0
		c0,0-0.1,0-0.1-0.1c0-0.5-0.3-0.9-0.7-1.2c0,0,0-0.1,0-0.1c0,0,0,0,0,0l1.1-6.5l0,0c0,0,0-0.1,0.1-0.1c0.5-0.1,0.9-0.3,1.2-0.7
		c0,0,0,0,0,0c0,0,0.1,0,0.1,0L38.1,20L38.1,20z M31.5,26.8L24.3,34l1.2-7.6l0,0c0,0,0,0,0,0c0,0,0,0,0.1,0l0,0
		c0.3-0.1,0.5-0.3,0.7-0.5c0,0,0.1-0.1,0.1-0.1c0,0,0,0,0,0L31.5,26.8L31.5,26.8z M22.8,35.5L22,36.3l-9-12.9c0,0,0,0,0,0
		c0,0,0,0,0-0.1c0,0,0,0,0,0l0,0c0,0,0.1-0.1,0.1-0.1l0,0l0,0c0,0,0,0,0.1-0.1c0,0,0.1,0,0.1,0l9.9,2c0,0,0.1,0,0.1,0c0,0,0,0,0,0
		c0.1,0.5,0.5,1,1,1.2c0,0,0,0,0,0.1c0,0,0,0,0,0C24.2,27.2,23.1,33.8,22.8,35.5z M21.1,37.2c-0.6,0.6-0.9,0.9-1.3,1
		c-0.4,0.1-0.8,0.1-1.2,0c-0.5-0.1-0.9-0.5-1.7-1.4l-9-9l2.3-3.6c0,0,0,0,0,0c0,0,0.1,0,0.1,0c0.5,0.2,1.1,0.1,1.6-0.1
		c0,0,0.1,0,0.1,0c0,0,0,0,0,0L21.1,37.2L21.1,37.2z M7,27L5,25L9,23.2c0,0,0,0,0,0c0,0,0.1,0,0.1,0.1c0,0.1,0.1,0.1,0.1,0.2l0,0
		c0,0,0,0,0,0L7,27L7,27z M4.1,24.1l-2.6-2.6c-0.4-0.4-0.8-0.8-1-1l7.9,1.6c0,0,0,0,0,0c0,0,0.1,0,0.1,0.1c0,0-0.1,0.1-0.1,0.1l0,0
		L4.1,24.1z M0,19.1c0-0.2,0-0.3,0.1-0.5c0.1-0.5,0.6-0.9,1.4-1.7l3.3-3.3c1.5,2.2,3.1,4.5,4.6,6.7c0,0,0.1,0.1,0,0.1
		c-0.1,0.2-0.3,0.3-0.4,0.5c0,0,0,0-0.1,0.1c0,0,0,0,0,0h0L0,19.1L0,19.1z M5.7,12.7l4.5-4.5c0.4,0.2,2,0.8,3.3,1.4
		c1,0.4,2,0.8,2.3,1c0,0,0.1,0,0.1,0.1c0,0,0,0,0,0.1c-0.1,0.7,0.1,1.3,0.5,1.8c0,0,0,0.1,0,0.1l0,0l-4.6,7.1c0,0,0,0,0,0
		c0,0-0.1,0-0.1,0c-0.2,0-0.4-0.1-0.5-0.1c-0.2,0-0.3,0-0.5,0.1h0c0,0,0,0-0.1,0c0,0,0,0,0-0.1L5.7,12.7L5.7,12.7z M11.1,7.3
		l5.8-5.8c0.8-0.8,1.2-1.2,1.7-1.4C19,0,19.4,0,19.8,0.1c0.5,0.1,0.9,0.5,1.7,1.4l1.3,1.3l-4.1,6.4c0,0,0,0,0,0c0,0-0.1,0-0.1,0
		c-0.7-0.2-1.4-0.1-1.9,0.4c0,0-0.1,0-0.1,0C15.9,9.3,11.7,7.5,11.1,7.3z M23.6,3.6l3.8,3.8l-0.9,5.7v0c0,0,0,0,0,0c0,0,0,0,0,0
		c-0.2,0.1-0.4,0.2-0.5,0.3c0,0,0,0,0,0c0,0,0,0,0,0c0,0,0,0,0,0L20,11l0,0c0,0-0.1,0-0.1-0.1c0-0.3-0.1-0.6-0.3-0.9
		c0,0-0.1-0.1,0-0.1L23.6,3.6z M19.7,12.2l5.5,2.3c0,0,0.1,0,0.1,0.1c0,0,0,0,0,0.1c0,0.1,0,0.2,0,0.3V15c0,0,0,0.1-0.1,0.1l0,0
		c-0.9,0.4-12.1,5.2-12.1,5.2s0,0-0.1,0c0,0,0-0.1,0-0.1c0,0,0,0,0,0l4.5-6.9l0,0c0,0,0.1-0.1,0.1-0.1l0,0c0.1,0,0.2,0,0.3,0
		c0.7,0,1.3-0.3,1.7-0.9C19.5,12.2,19.5,12.2,19.7,12.2C19.6,12.2,19.6,12.2,19.7,12.2z M13.4,21.4l12.3-5.2c0,0,0,0,0,0
		c0.1,0.1,0.1,0.1,0.2,0.2l0,0c0,0,0,0,0.1,0.1c0,0,0,0,0,0l-1.1,6.5l0,0c0,0,0,0.1-0.1,0.1c-0.6,0-1.1,0.4-1.4,0.8l0,0
		c0,0,0,0,0,0.1c0,0,0,0-0.1,0l-9.8-2C13.6,21.9,13.4,21.4,13.4,21.4z"/>
</g>
</svg>
