<svg xmlns="http://www.w3.org/2000/svg" id="sololearn" viewBox="0 0 148 22">
    <path d="M54.224.853c-3.088 1.005-6.312 3.838-5.904 7.036c0 3.655 3.633 6.488 7.22 7.676c-2.815-3.244-4.813-7.264-3.042-11.696c.818-1.874 1.726-3.016 1.726-3.016z" fill="#6CB94F"></path>
    <path d="M47.549 8.758c-1.226 3.198-.046 7.218 2.361 8.863c3.224 2.422 7.63 1.234 10.854-1.599c-4.405.823-9.22 0-11.671-3.975c-1.09-1.873-1.544-3.29-1.544-3.29z" fill="#158E9B"></path>
    <path d="M50.455 18.855c2.225 2.741 6.267 3.883 9.491 2.65c2.18-.868 3.815-3.244 4.178-5.94c.227-1.37-.045-2.513-.227-3.883c-1.59 4.431-5.177 7.538-9.809 7.767c-2.134-.137-3.633-.594-3.633-.594z" fill="#2FB7E9"></path>
    <path d="M61.31 21.688c3.496-.868 7.083-4.112 7.083-7.722c0-2.421-2.497-6.762-7.22-7.675c3.224 3.243 5.222 8.498 2.452 12.564c-1.226 1.782-2.316 2.833-2.316 2.833z" fill="#EB58A0"></path>
    <path d="M69.074 12.961c.5-3.472-.318-7.904-3.496-9.549c-1.999-1.234-7.857-.046-9.628 3.244c4.042-1.6 9.219-1.234 11.671 3.107c1.045 1.782 1.453 3.198 1.453 3.198z" fill="#EA545E"></path>
    <path d="M64.896 2.27C62.353.214 58.356-.974 55.54 1.036c-3.224 2.01-3.996 6.442-1.998 10.097c.408-4.431 3.633-8.087 7.901-8.863c1.998-.229 3.452 0 3.452 0z" fill="#EF7543"></path>
    <path d="M10.447 15.977c0-.823-.318-1.508-.908-2.102c-.59-.548-1.635-1.05-3.134-1.416c-1.862-.457-3.315-1.143-4.36-2.056C1.002 9.489.503 8.393.503 7.022c0-1.417.545-2.65 1.68-3.61c1.135-.96 2.589-1.416 4.36-1.416c1.907 0 3.45.548 4.586 1.645c1.136 1.096 1.68 2.375 1.68 3.838l-.045.09h-2.361c0-1.05-.364-1.918-1.09-2.603c-.727-.686-1.635-1.006-2.77-1.006c-1.136 0-2.044.275-2.634.823c-.636.548-.909 1.28-.909 2.193c0 .777.318 1.462 1 2.01c.68.549 1.77 1.005 3.27 1.417c1.816.457 3.223 1.188 4.177 2.101c.954.914 1.453 2.102 1.453 3.473c0 1.462-.59 2.65-1.725 3.563c-1.136.914-2.68 1.325-4.542 1.325c-1.77 0-3.315-.502-4.677-1.507c-1.362-1.006-1.998-2.33-1.953-3.975l.046-.092h2.361c0 1.143.454 2.056 1.317 2.65a4.86 4.86 0 0 0 2.952.96c1.18 0 2.089-.274 2.77-.777c.636-.548.999-1.233.999-2.147z" fill="#5584AC"></path>
    <path d="M30.293 13.052c0 2.239-.682 4.112-2.09 5.574c-1.362 1.462-3.178 2.239-5.358 2.239c-2.134 0-3.86-.731-5.177-2.239c-1.317-1.462-1.998-3.335-1.998-5.574V9.808c0-2.239.681-4.112 1.998-5.574c1.317-1.508 3.043-2.239 5.177-2.239c2.225 0 3.996.731 5.359 2.24c1.362 1.461 2.089 3.334 2.089 5.573v3.244zm-2.453-3.29c0-1.69-.454-3.06-1.362-4.112c-.908-1.096-2.089-1.599-3.633-1.599c-1.453 0-2.588.549-3.451 1.6c-.863 1.096-1.272 2.467-1.272 4.111v3.29c0 1.69.409 3.061 1.272 4.158c.863 1.096 1.998 1.599 3.451 1.599c1.544 0 2.725-.548 3.633-1.6c.908-1.05 1.362-2.466 1.362-4.157v-3.29z" fill="#5584AC"></path>
    <path d="M36.332 18.672h8.9v1.919H33.88V2.269h2.452v16.403z" fill="#5584AC"></path>
    <path d="M75.932 18.672h8.9v1.919H73.48V2.269h2.452v16.403z" fill="#959494"></path>
    <path d="M97.502 12.092h-7.493v6.58h8.764v1.919H87.557V2.269h11.08v1.965H90.01v5.94h7.493v1.918z" fill="#959494"></path>
    <path d="M111.08 15.885h-6.858l-1.634 4.706h-2.498l6.585-18.322h2.134l6.448 18.322h-2.497l-1.68-4.706zm-6.131-2.102h5.449l-2.634-7.859h-.09l-2.725 7.859z" fill="#959494"></path>
    <path d="M120.344 12.64v7.95h-2.452V2.27h6.221c1.998 0 3.497.456 4.587 1.324c1.044.868 1.589 2.193 1.589 3.884c0 .96-.227 1.782-.727 2.467c-.499.685-1.18 1.234-2.134 1.645c.999.32 1.726.868 2.18 1.599c.454.731.636 1.645.636 2.741v1.736c0 .549.045 1.097.181 1.554a2.6 2.6 0 0 0 .636 1.096v.32h-2.543c-.318-.274-.545-.685-.636-1.279a10.588 10.588 0 0 1-.136-1.69V15.93c0-1.005-.272-1.782-.863-2.375c-.59-.595-1.362-.914-2.316-.914h-4.223zm0-1.964h3.497c1.407 0 2.406-.274 2.997-.822c.59-.549.908-1.325.908-2.422c0-1.05-.318-1.827-.908-2.421c-.591-.549-1.544-.868-2.77-.868h-3.77v6.533h.046z" fill="#959494"></path>
    <path d="M148 20.59h-2.452l-8.765-14.026l-.091.046v13.98h-2.452V2.27h2.452l8.765 13.98l.091-.046V2.27H148v18.322z" fill="#959494"></path>
</svg>
