<svg xmlns="http://www.w3.org/2000/svg" width="380" height="317.15" viewBox="0 0 380 317.15"><defs><style>.a{fill:red;}</style></defs><path d="M88.74,73.2q-8.47,13-15.59,24.47T59.93,119.48q-6.12,10.36-11.54,19.93T38,158.26h52.5v20.13H10v-14q4.34-8.49,9.28-17.86t11-20q6.11-10.67,13.32-23.09t15.89-27h-47V56.23H88.74Z" transform="translate(-10 -41.43)"/><path d="M144.59,160c5.93,0,10.46-.43,13.62-1.29s4.74-2.59,4.74-5.23a6.62,6.62,0,0,0-1.48-4.34,12.29,12.29,0,0,0-4.15-3.06,56.91,56.91,0,0,0-6.11-2.46q-3.47-1.18-7.21-2.37-5.33-1.57-10.85-3.65a45.67,45.67,0,0,1-10.07-5.23,26.45,26.45,0,0,1-7.5-8,22.88,22.88,0,0,1-3-12.13,27.72,27.72,0,0,1,2.27-11.15A25,25,0,0,1,122,91.85a34.6,34.6,0,0,1,12.33-6.31,62.24,62.24,0,0,1,18-2.27,96.82,96.82,0,0,1,16.87,1.38,58.11,58.11,0,0,1,13.52,3.94l-3.75,20.53q-3.35-1-10.46-3.26a52.45,52.45,0,0,0-16-2.27q-9.28,0-12.53,2.27t-3.26,4.84a5.63,5.63,0,0,0,1.48,3.85,14.85,14.85,0,0,0,3.95,3.06,46.15,46.15,0,0,0,5.72,2.66q3.26,1.29,7,2.47,5.32,1.77,11,3.94a47.09,47.09,0,0,1,10.36,5.43,26.29,26.29,0,0,1,7.6,8.29,24,24,0,0,1,3,12.33,27.71,27.71,0,0,1-2.17,10.86,21.51,21.51,0,0,1-7.21,8.88,38.58,38.58,0,0,1-13.12,5.92,78,78,0,0,1-19.93,2.17,66.88,66.88,0,0,1-20.53-2.76q-8.49-2.76-13.61-4.94L114,152.54q6.91,2.76,14.71,5.13A54.27,54.27,0,0,0,144.59,160Z" transform="translate(-10 -41.43)"/><path d="M210.71,178.39V45.57L235,41.43v45a69.21,69.21,0,0,1,7.11-1.87,35.46,35.46,0,0,1,7.3-.89q10.26,0,17.17,3.06a27,27,0,0,1,11.05,8.68,35.72,35.72,0,0,1,5.92,13.42,77.54,77.54,0,0,1,1.78,17.27v52.3H261V129.25q0-13-3-18.75t-11.25-5.72a27.73,27.73,0,0,0-6.61.79Q237,106.35,235,107v71.44Z" transform="translate(-10 -41.43)"/><path d="M104.93,294.83q0-31.57,11.64-47.66t32.37-16.09q21.51,0,32.76,16.09T193,294.83q0,31.57-11.45,47.66t-32.37,16.08q-21.51,0-32.86-16.08T104.93,294.83Zm24.67,0c0,5.92.22,11.48.69,16.67A53.82,53.82,0,0,0,133.05,325a21.81,21.81,0,0,0,5.82,9.08q3.75,3.36,10.07,3.36a14.59,14.59,0,0,0,10-3.36,21.24,21.24,0,0,0,5.92-9.18,55.53,55.53,0,0,0,2.77-13.51q.69-7.71.69-16.58t-.69-16.68a54.43,54.43,0,0,0-2.77-13.52,21.94,21.94,0,0,0-5.82-9.08q-3.75-3.35-10.06-3.35t-10.07,3.35a21.87,21.87,0,0,0-5.82,9.18,55.16,55.16,0,0,0-2.76,13.52C129.82,283.38,129.6,288.91,129.6,294.83Z" transform="translate(-10 -41.43)"/><path d="M210.71,266.21q6.51-1.77,16.08-3.35a127.32,127.32,0,0,1,20.82-1.58q11.05,0,18.36,3.06A27.33,27.33,0,0,1,277.51,273a34.71,34.71,0,0,1,6,13.42,77.48,77.48,0,0,1,1.78,17.27V356H261V306.87q0-13-3-18.75t-12-5.73c-1.84,0-3.65.07-5.42.2s-3.65.33-5.63.59V356H210.71Z" transform="translate(-10 -41.43)"/><path d="M303.07,310.42a57.07,57.07,0,0,1,3.75-21.51,46.75,46.75,0,0,1,9.87-15.5,40.66,40.66,0,0,1,14-9.37,43.31,43.31,0,0,1,16.18-3.16q20.52,0,31.18,12.14t10.66,35.42c0,1.58,0,3.23-.1,4.94s-.17,3.09-.29,4.14h-60.2a16.52,16.52,0,0,0,7.5,14.31q7.5,5.24,19.34,5.23a59.39,59.39,0,0,0,13.92-1.58q6.6-1.58,11.15-3.16l3.35,20.73A110.65,110.65,0,0,1,370,356.7a79.08,79.08,0,0,1-16,1.48,68.23,68.23,0,0,1-21.22-3.06,43.32,43.32,0,0,1-16-9.08,39.88,39.88,0,0,1-10.16-14.9A55.54,55.54,0,0,1,303.07,310.42Zm62.17-9.67a26.35,26.35,0,0,0-1-7.2,17.86,17.86,0,0,0-3.16-6.22,16.07,16.07,0,0,0-5.53-4.44,18.37,18.37,0,0,0-8.28-1.68,19.58,19.58,0,0,0-8.19,1.58,15.68,15.68,0,0,0-5.73,4.34,21.25,21.25,0,0,0-3.55,6.32,30.47,30.47,0,0,0-1.68,7.3Z" transform="translate(-10 -41.43)"/><path class="a" d="M390,153.17a31,31,0,0,1-7.89,20.92q-7.91,9.07-20.92,9.08-13.43,0-21.32-9.08A31,31,0,0,1,332,153.17a31.46,31.46,0,0,1,7.89-21.31q7.89-9.08,21.32-9.08,13,0,20.92,9.08A31.46,31.46,0,0,1,390,153.17Z" transform="translate(-10 -41.43)"/></svg>