<?xml version="1.0" encoding="utf-8"?>
<svg version="1.1" id="Layer_1" xmlns="http://www.w3.org/2000/svg" xmlns:xlink="http://www.w3.org/1999/xlink" x="0px" y="0px"
	 viewBox="0 0 923.1 248.9" style="enable-background:new 0 0 923.1 248.9;" xml:space="preserve">
<style type="text/css">
	.st0{fill:#DE5833;}
	.st1{fill:#FFFFFF;}
	.st2{fill-rule:evenodd;clip-rule:evenodd;fill:#FED30A;}
	.st3{fill:#2D4F8D;}
	.st4{fill:#D5D7D8;}
	.st5{fill:#67BD47;}
	.st6{fill:#43A347;}
	.st7{fill:#4C4C4C;}
</style>
<g id="g447" transform="translate(-14.6 -7.1)">
	<g id="g439">
		<g id="g395">
			<circle id="circle366" class="st0" cx="139.1" cy="131.6" r="124.5"/>
			<path id="path368" class="st1" d="M244.7,86.8c-5.8-13.6-14-25.9-24.6-36.6c-10.7-10.7-22.6-18.9-36.6-24.6
				c-14-6.2-29.2-9-44.4-9c-15.6,0-30.4,2.9-44.4,9c-13.6,5.8-25.9,14-36.6,24.6S39.2,72.8,33.5,86.8c-6.2,14-9,29.2-9,44.4
				c0,15.2,2.9,30.4,9,44.4c5.8,13.6,14,25.9,24.6,36.6c10.7,10.7,22.6,18.9,36.6,24.6c14,6.2,29.2,9,44.4,9c15.6,0,30.4-2.9,44.4-9
				c13.6-5.8,25.9-14,36.6-24.6c10.7-10.7,18.9-22.6,24.6-36.6c6.2-14,9-29.2,9-44.4C253.7,116,250.8,101.2,244.7,86.8z
				 M164.1,234.3c-6.6-11.1-23.8-42.7-23.8-65.7c0-53.4,36.2-7.8,36.2-50.5c0-10.3-4.9-46-36.2-53.4c-7.8-10.3-25.9-20.1-54.2-16
				c0,0,4.9,1.2,10.3,4.1c0,0-10.3,1.2-10.7,8.6c0,0,20.5-1.2,32.5,2.9c-26.7,3.3-40.7,17.3-38.2,43.1
				c3.7,36.2,18.9,101.1,24.2,123.7c-40.7-14.8-69.8-53.8-69.8-99.4C34.3,73.2,81.6,26,139.9,26s105.6,47.2,105.6,105.6
				C245.1,181.3,210.6,223.2,164.1,234.3L164.1,234.3z"/>
			<path id="Beak_2_" class="st2" d="M133.7,148.8c0-13.6,18.9-18.1,25.9-18.1c19.3,0,46-12.3,52.6-11.9s11.1,2.9,11.1,6.2
				c0,4.5-38.2,21.8-53,20.1c-14-1.2-17.3,0.4-17.3,6.2c0,4.9,10.3,9.4,21.4,9.4c16.8,0,33.3-7.4,38.2-3.7
				c4.1,3.3-11.5,14.4-29.6,14.4S133.7,162.4,133.7,148.8L133.7,148.8z"/>
			<g id="g379">
				<path id="path371" class="st3" d="M166.6,90.5c-4.9-6.6-14-6.6-16.8,0.8C154.3,87.6,160.4,86.8,166.6,90.5z"/>
				<path id="path373" class="st3" d="M111.1,90.9c-7-4.1-18.5-4.5-17.7,8.2C97.2,91.3,101.3,89.7,111.1,90.9z"/>
				<path id="path375" class="st3" d="M162.5,102.8c-3.7,0-7,2.9-7,7c0,3.7,2.9,7,7,7s7-2.9,7-7
					C169.5,105.7,166.2,102.8,162.5,102.8z M165,109c-1.2,0-2.1-0.8-2.1-2.1c0-1.2,0.8-2.1,2.1-2.1c1.2,0,2.1,0.8,2.1,2.1
					C167,108.2,166.2,109,165,109z"/>
				<path id="path377" class="st3" d="M109.5,106.5c-4.5,0-7.8,3.7-7.8,7.8c0,4.5,3.7,7.8,7.8,7.8c4.5,0,7.8-3.7,7.8-7.8
					S113.6,106.5,109.5,106.5z M112.4,113.9c-1.2,0-2.5-1.2-2.5-2.5s1.2-2.5,2.5-2.5s2.5,1.2,2.5,2.5
					C114.4,112.7,113.6,113.9,112.4,113.9z"/>
			</g>
			<g id="g387">
				<path id="path381" class="st4" d="M92.2,72.8c-9.9,7.4-14.8,18.5-13.1,34.1C82.8,143.1,98,208,103.3,230.6
					c2.1,0.8,3.7,1.2,5.8,1.6c-3.3-14-19.3-80.5-26.3-131.9C80.7,87.2,86.1,79.4,92.2,72.8L92.2,72.8z"/>
				<path id="path383" class="st4" d="M116.9,64.2h1.2c-11.1-5.3-27.9-5.3-32.5-5.3c-0.4,0.8-0.8,1.6-0.8,2.9
					C84.8,61.3,105,60.5,116.9,64.2z"/>
				<path id="path385" class="st4" d="M97.6,53.1c-3.3-2.1-6.2-3.7-7.8-4.5c-1.2,0-2.9,0.4-4.1,0.4c0,0,4.9,1.2,10.3,4.1h-0.4
					C96.8,52.7,97.6,53.1,97.6,53.1z"/>
			</g>
			<g id="g393">
				<path id="path389" class="st5" d="M181,190.7c-3.7-0.8-17.3,9-22.2,12.7c-0.4-0.8-0.4-1.6-0.8-2.1c-0.8-2.1-14-0.8-17.3,2.5
					c-8.2-4.1-24.6-11.5-25.1-7c-0.4,6.2,0,32,3.3,34.1c2.5,1.2,16.4-6.2,23.8-10.3c4.5,1.2,12.7,0,15.6-1.6
					c0.4-0.4,0.4-0.4,0.8-1.2c6.6,2.5,20.1,7.4,23.4,6.6C186.3,223.2,185.5,192,181,190.7L181,190.7z"/>
				<path id="path391" class="st6" d="M143.2,220.7c-4.5-0.8-2.9-5.3-2.9-15.6c-1.2,0.8-1.6,1.6-1.6,2.5c0,10.3-1.6,14.8,2.9,15.6
					c4.5,1.2,12.7,0,15.6-1.6c0.4-0.4,0.8-1.2,1.2-2.1C154.7,220.7,147.3,222,143.2,220.7L143.2,220.7z"/>
			</g>
		</g>
		<g id="g437">
			<g id="g399">
				<path id="path397" class="st7" d="M310.4,164.8V90.9h26.7c25.5,0,37,18.5,37,36.2c0,18.9-11.5,37.8-37,37.8H310.4z M319,156.2
					h18.5c19.7,0,28.3-14.8,28.3-29.2c0-13.6-9-27.9-28.3-27.9H319V156.2z"/>
			</g>
			<g id="g403">
				<path id="path401" class="st7" d="M407.7,165.7c-14,0-22.6-9.4-22.6-23.8v-28.8h8.2v28.3c0,10.7,6.2,16.8,16,16.8
					c9.4,0,16.4-7.4,16.4-17.3v-27.9h8.2v51.8h-7l-0.4-9l-1.2,1.6C420.9,162.8,415.1,165.3,407.7,165.7L407.7,165.7z"/>
			</g>
			<g id="g407">
				<path id="path405" class="st7" d="M473.1,165.7c-13.6,0-27.1-8.2-27.1-26.7c0-16,10.7-26.7,27.1-26.7c7.4,0,13.1,2.5,18.5,7.4
					l-4.9,4.9c-3.7-3.3-8.2-4.9-13.1-4.9c-11.5,0-19.3,7.8-19.3,19.3c0,13.1,9.4,19.3,19.3,19.3c5.3,0,10.3-1.6,14-5.3l4.9,4.9
					C486.6,162.8,480,165.7,473.1,165.7L473.1,165.7z"/>
			</g>
			<g id="g411">
				<path id="polygon409" class="st7" d="M510,164.8h-7.8V90.9h7.8v44.8l22.2-22.6h10.7l-24.6,24.2l27.5,27.1v0.4h-10.3L510,139.4
					V164.8z"/>
			</g>
			<g id="g415">
				<path id="path413" class="st7" d="M555.2,164.8V90.9h26.7c25.5,0,37,18.5,37,36.2c0,18.9-11.5,37.8-37,37.8H555.2z M564.3,156.2
					h18.5c19.7,0,28.3-14.8,28.3-29.2c0-13.6-9-27.9-28.3-27.9h-18.5V156.2z"/>
			</g>
			<g id="g419">
				<path id="path417" class="st7" d="M652.6,165.7c-14,0-22.6-9.4-22.6-23.8v-28.8h8.2v28.3c0,10.7,6.2,16.8,16,16.8
					c9.4,0,16.4-7.4,16.4-17.3v-27.9h8.2v51.8h-7.4l-0.4-9l-1.2,1.6C666.1,162.8,660,165.3,652.6,165.7L652.6,165.7z"/>
			</g>
			<g id="g423">
				<path id="path421" class="st7" d="M717.9,165.7c-13.6,0-27.1-8.2-27.1-26.7c0-16,10.7-26.7,27.1-26.7c7.4,0,13.1,2.5,18.5,7.4
					l-4.9,4.9c-3.7-3.3-8.2-4.9-13.1-4.9c-11.5,0-19.3,7.8-19.3,19.3c0,13.1,9.4,19.3,19.3,19.3c5.3,0,10.3-1.6,14-5.3l4.9,4.9
					l-0.4,0.4C731.5,163.2,725.3,165.7,717.9,165.7L717.9,165.7z"/>
			</g>
			<g id="g427">
				<path id="polygon425" class="st7" d="M755.3,164.8h-7.8V90.9h7.8v44.8l22.2-22.6h10.3l-24.2,24.2l27.1,27.1v0.4h-10.3
					l-25.1-25.5V164.8z"/>
			</g>
			<g id="g431">
				<path id="path429" class="st7" d="M832.1,166.1c-28.3,0-38.2-20.5-38.2-37.4c0-11.5,3.7-21.4,10.7-28.3c7-7,16.4-10.7,27.5-10.7
					c10.3,0,19.3,3.7,26.7,10.7l-4.9,5.8c-5.8-5.3-14-8.6-21.8-8.6c-20.5,0-30,16-30,31.2c0,14.8,9.4,29.6,30.4,29.6
					c7.4,0,14.8-2.9,20.5-7.4l0.4-0.4V132h-23v-7.4h30.8v28.8C853.1,162,843.6,166.1,832.1,166.1L832.1,166.1z"/>
			</g>
			<g id="g435">
				<path id="path433" class="st7" d="M897.8,165.7c-15.6,0-26.7-11.1-26.7-26.7s11.5-27.1,26.7-27.1c16,0,27.1,11.1,27.1,27.1
					C924.1,154.2,913,165.7,897.8,165.7z M897.8,118.8c-11.1,0-18.9,8.2-18.9,19.7c0,11.1,7.8,19.3,18.9,19.3s18.9-7.8,19.3-19.3
					C916.3,127.5,908.9,118.8,897.8,118.8z"/>
			</g>
		</g>
	</g>
	<g id="g445">
		<path id="path441" class="st7" d="M932.3,170.2c0.8-0.4,1.2-0.8,1.2-1.6s-0.4-1.2-0.8-1.6c-0.4-0.4-1.2-0.4-2.5-0.4
			c-1.2,0-2.1,0-2.5,0.4v6.6h1.6V171h0.8c0.8,0,1.2,0.4,1.2,1.2c0.4,0.8,0.4,1.2,0.4,1.6h1.6c0-0.4-0.4-0.8-0.4-1.6
			C933.6,171,933.2,170.6,932.3,170.2L932.3,170.2z M930.7,169.8h-0.8v-2.1h0.8c0.8,0,1.2,0.4,1.2,0.8
			C932.3,169.8,931.5,169.8,930.7,169.8z"/>
		<path id="path443" class="st7" d="M930.7,163.6c-3.7,0-7,2.9-7,6.6c0,3.7,2.9,7,7,7c3.7,0,7-2.9,7-7
			C937.7,166.5,934.8,163.6,930.7,163.6z M931.1,175.5c-2.9,0-5.3-2.5-5.3-5.3c0-2.9,2.1-5.3,5.3-5.3c2.9,0,5.3,2.5,5.3,5.3
			C936,173.1,934,175.5,931.1,175.5z"/>
	</g>
</g>
</svg>
