<?xml version="1.0" encoding="utf-8"?>
<!-- Generator: Adobe Illustrator 24.1.3, SVG Export Plug-In . SVG Version: 6.00 Build 0)  -->
<svg version="1.1" id="图层_1" xmlns="http://www.w3.org/2000/svg" xmlns:xlink="http://www.w3.org/1999/xlink" x="0px" y="0px"
	 viewBox="0 0 100 60" style="enable-background:new 0 0 100 60;" xml:space="preserve">
<style type="text/css">
	.st0{fill:#404242;}
</style>
<path class="st0" d="M0,10v2.7h19.5V10H0z M22.2,10v2.7H50c-1.8-1.6-4.2-2.6-6.6-2.7H22.2z M55.4,10v2.7h16.8l-1-2.7H55.4z M84.2,10
	l-1,2.7h16.6V10H84.2z M0,15.3v2.8h19.5v-2.8H0z M22.2,15.3v2.8h31c-0.2-1-0.5-1.9-1-2.8H22.2z M55.4,15.3v2.8H74l-0.9-2.8H55.4z
	 M82.2,15.3l-0.9,2.8h18.5v-2.8H82.2z M5.6,20.6v2.8H14v-2.8H5.6z M27.8,20.6v2.8h8.4v-2.8H27.8z M44.4,20.6v2.8h8.5
	c0.3-0.9,0.5-1.8,0.5-2.8H44.4z M61,20.6v2.8h14.9l-1-2.8H61z M80.4,20.6l-1,2.8h15v-2.8H80.4z M5.6,26v2.7H14V26H5.6z M27.8,26v2.7
	h21.5c1-0.7,1.8-1.7,2.4-2.7H27.8z M61,26v2.7h8.4v-1.5l0.6,1.5h15.4l0.6-1.5v1.5h8.4V26H78.6l-0.9,2.3L76.9,26H61z M5.6,31.3V34H14
	v-2.7H5.6z M27.8,31.3V34h23.9c-0.6-1-1.4-2-2.4-2.7H27.8z M61,31.3V34h8.4v-2.7H61z M71,31.3l1,2.7h11.6l0.9-2.7H71z M86,31.3V34
	h8.4v-2.7H86z M5.6,36.6v2.8H14v-2.8H5.6z M27.8,36.6v2.8h8.4v-2.8H27.8z M44.4,36.6v2.8h9c0-1-0.2-1.9-0.5-2.8H44.4z M61,36.6v2.8
	h8.4v-2.8H61z M72.9,36.6l1,2.8h7.7l1-2.8H72.9z M86,36.6v2.8h8.4v-2.8H86z M0.2,41.9v2.8h19.4v-2.8H0.2z M22.2,41.9v2.8h30
	c0.5-0.9,0.8-1.8,1-2.8H22.2z M55.6,41.9v2.8h13.8v-2.8H55.6z M74.8,41.9l1,2.8h4l0.9-2.8H74.8z M86,41.9v2.8h14v-2.8H86z M0.2,47.3
	V50h19.4v-2.7H0.2z M22.2,47.3V50h21.2c2.4-0.1,4.8-1.1,6.6-2.7H22.2z M55.6,47.3V50h13.8v-2.7H55.6z M76.7,47.3l1,2.7h0.2l1-2.7
	H76.7z M86,47.3V50h14v-2.7H86z"/>
</svg>
