<?xml version="1.0" encoding="utf-8"?>
<!-- Generator: Adobe Illustrator 24.1.3, SVG Export Plug-In . SVG Version: 6.00 Build 0)  -->
<svg version="1.1" id="Layer_1" xmlns="http://www.w3.org/2000/svg" xmlns:xlink="http://www.w3.org/1999/xlink" x="0px" y="0px"
	 viewBox="0 0 205.3 143" style="enable-background:new 0 0 205.3 143;" xml:space="preserve">
<style type="text/css">
	.st0{fill:#00A1FF;}
	.st1{fill:#00C4D6;}
	.st2{fill:#006EFF;}
</style>
<desc>Created with Sketch.</desc>
<g id="Page-1">
	<g id="aws-cloud">
		<g id="Fill-10">
			<g id="tencent-cloud" transform="translate(47.000000, 73.000000)">
				<g id="Group" transform="translate(0.000000, 119.000000)">
					<path id="Path" d="M95.5-55.3c0-0.1-0.1-0.2-0.3-0.1c-1.8,2.1-4.7,3.7-8.1,3.7c-5.2,0-8.6-3.6-8.6-9.2c0-5.7,3.2-9.2,8.4-9.2
						c3,0,6.1,1.4,8,3.4c0.1,0.1,0.3,0,0.3-0.1v-2.9c-2.1-1.9-5.2-3.1-8.3-3.1c-3.2,0-6.1,1.2-8,3.3c-1.9,2.1-3,5.1-3,8.6
						C75.9-53.8,80.4-49,87-49c3.2,0,6.3-1.2,8.4-3.2v-3.1H95.5z"/>
					<polygon points="-47,-72.2 -47,-69.7 -39.2,-69.7 -39.2,-49.6 -36.5,-49.6 -36.5,-69.7 -28.6,-69.7 -28.6,-72.2 					"/>
					<path id="Shape" d="M155.5-64.5c-1.4-1.5-3.8-2.1-5.4-2.1c-2.3,0-4.3,0.8-5.7,2.4c-1.5,1.5-2.2,3.8-2.2,6.3c0,6,4,8.7,8,8.7
						c2.3,0,4.2-0.8,5.4-2.3v1.9h2.7v-22.7h-2.8V-64.5z M155.5-57.9c0,3.1-1.8,6.2-5.2,6.2c-2.6,0-5.4-1.9-5.4-6.1
						c0-3.1,1.6-6.4,5.2-6.4C154.1-64.1,155.5-60.8,155.5-57.9z"/>
					<rect id="Rectangle" x="99.1" y="-72.1" width="2.7" height="22.6"/>
					<path d="M20.1-53.8c0-0.1-0.1-0.2-0.3-0.1c-1.8,1.6-4.4,2.2-5.5,2.2c-3.6,0-6-2.4-6-6.2c0-3.8,2.4-6.2,6-6.2
						c1.1,0,3.6,0.3,5.5,1.9c0.1,0.1,0.2,0,0.2-0.1v-2.5c-1.1-0.7-3.5-1.8-5.9-1.8c-5,0-8.4,3.5-8.4,8.7s3.4,8.7,8.4,8.7
						c2.1,0,4.1-0.6,5.9-1.8L20.1-53.8L20.1-53.8z"/>
					<path d="M-15.4-54.3c0-0.1-0.2-0.2-0.3-0.1c-1.2,1.5-4.1,2.9-5.8,2.9s-3.3-0.5-4.1-1.5c-1-1.1-1.6-2.6-1.6-4.1h12.7v-0.2
						c0-3.6-0.6-5.6-2.2-7.2c-1.3-1.3-3.1-2.1-5.3-2.1c-4.7,0-7.8,3.4-7.8,8.6c0.1,5.4,3.3,8.7,8.3,8.7c2.4,0,4.4-0.8,6.3-2.4
						L-15.4-54.3L-15.4-54.3z M-17.2-59.4h-10.1v-0.1c0.1-1.4,0.7-2.6,1.8-3.6c0.9-0.7,2.1-1.1,3.2-1.1
						C-19.2-64.2-17.3-62.4-17.2-59.4L-17.2-59.4z"/>
					<path d="M136.4-57.7c0,4.5-2.6,6.1-4.9,6.1c-2.1,0-4.5-1.5-4.5-4.3v-10.2h-2.5v10.2c0,4,2.8,6.8,6.9,6.8c2.3,0,4-0.7,5.2-2.2
						v1.8h2.4v-16.6h-2.5L136.4-57.7L136.4-57.7z"/>
					<path d="M-3.9-66.6c-2.1,0-3.8,0.7-5,2v-1.5h-2.6v16.5h2.6v-9.5c0-1.5,0.5-2.9,1.3-3.8c1-0.9,2.1-1.3,3.5-1.3
						C-2-64.1,0-62.8,0-59.9v10.1h2.7v-10.1c0-2.1-0.7-3.8-1.9-4.9C-0.3-66-2-66.6-3.9-66.6z"/>
					<path d="M37.2-54.3c0-0.1-0.2-0.2-0.3-0.1c-1.2,1.5-4.1,2.9-5.8,2.9c-1.7,0-3.3-0.5-4.1-1.5c-1-1.1-1.6-2.6-1.6-4.1h12.7v-0.2
						c0-3.6-0.6-5.6-2.2-7.2c-1.4-1.3-3.2-2.1-5.4-2.1c-4.7,0-7.8,3.4-7.8,8.6c0.1,5.4,3.3,8.7,8.3,8.7c2.4,0,4.4-0.8,6.3-2.4
						L37.2-54.3L37.2-54.3z M35.4-59.4H25.3v-0.1c0.1-1.4,0.7-2.6,1.8-3.6c0.9-0.7,2.1-1.1,3.2-1.1C33.3-64.2,35.2-62.4,35.4-59.4
						L35.4-59.4z"/>
					<path d="M48.6-66.6c-2.1,0-3.8,0.7-5,2v-1.5H41v16.5h2.5v-9.5c0-1.5,0.5-2.9,1.3-3.8c1-0.9,2.1-1.3,3.5-1.3
						c2.1,0.1,4.1,1.4,4.1,4.3v10.1H55v-10.1c0-2.1-0.7-3.8-1.9-4.9C52.2-66,50.6-66.6,48.6-66.6z"/>
					<path d="M63.8-49.4c1.6-0.1,3.4-0.7,3.4-0.7v-2.5c0-0.1-0.1-0.2-0.2-0.1c-0.7,0.2-2.1,0.7-2.8,0.7c-0.3,0.1-0.5,0.1-0.7-0.1
						c-0.1-0.1-0.1-0.2-0.1-0.5v-11.1h4.8v-2.4h-4.8v-4.5h-2.7v4.4H58v2.4h2.7v11.4c0,1,0.3,1.8,0.9,2.3
						C62.1-49.6,62.9-49.4,63.8-49.4z"/>
					<path d="M113.5-66.6c-4.8,0-8,3.5-8,8.7c0,5.1,3.2,8.7,8,8.7s8-3.5,8-8.7C121.6-63,118.3-66.6,113.5-66.6z M107.9-57.9
						L107.9-57.9c0-3.7,2.2-6.1,5.5-6.1s5.5,2.5,5.5,6.2c0,3.7-2.2,6.2-5.5,6.2C110.2-51.7,107.9-54.2,107.9-57.9z"/>
				</g>
				<g transform="translate(31.000000, 0.000000)">
					<path class="st0" d="M86.8-25.9c-6-6.1-14.3-10-23.6-10c-8,0-14.9,2.8-21,7.7c-2.7,2.1-5.4,4.6-8.9,8
						C31.5-18.6-18.4,30-18.4,30c2.7,0.4,6.2,0.4,9.5,0.5c3,0,60.5,0,62.9,0c4.8,0,8,0,11.4-0.2c7.8-0.6,15.1-3.4,21-9.2
						C99.5,8.2,99.7-12.8,86.8-25.9 M77.2,11.8c-2.6,2.5-7.1,5.4-14.5,5.7c-3.5,0.1-7.5,0.1-9.4,0.1H13.2
						C27.7,3.5,40.5-8.9,41.9-10.3c1.3-1.3,4.3-4.1,6.9-6.4c5.7-5,10.7-6.1,14.3-6c5.6,0.1,10.7,2.4,14.4,6
						C85.3-8.8,85.2,4,77.2,11.8"/>
					<path class="st1" d="M6.2-29c-5.9-4.4-12.5-6.9-19.9-6.9c-9.3,0-17.6,3.8-23.6,10c-12.8,13.1-12.7,34.1,0.5,47
						c5.3,5.2,11.7,8,18.5,9l12.8-12.5c-2.1,0-5-0.1-7.7-0.1c-7.5-0.2-12-3.1-14.5-5.7c-8-7.8-8.2-20.6-0.4-28.5
						c3.6-3.7,8.8-6,14.4-6c3.5,0,8.3,1,13.7,5.5c2.6,2.1,8.3,7.2,10.8,9.4c0.1,0.1,0.3,0.1,0.4,0l8.9-8.7c0.1-0.1,0.1-0.4,0-0.4
						C15.8-21,9.8-26.3,6.2-29"/>
					<path class="st2" d="M66.7-43.3C60.5-60.6,44-73,24.7-73C2.4-73-16-56.7-19.3-35.5c1.8-0.3,3.6-0.4,5.5-0.4
						c2.7,0,5.2,0.3,7.5,0.9c0.1,0,0.1,0,0.1,0c3-14.3,15.7-25,30.8-25c12.6,0,23.6,7.6,28.6,18.3c0.1,0.1,0.2,0.2,0.4,0.2
						c3.8-1,8.2-1.6,12.6-1.3C66.6-42.7,66.7-42.9,66.7-43.3"/>
				</g>
			</g>
		</g>
	</g>
</g>
</svg>
