<?xml version="1.0" encoding="utf-8"?>
<svg version="1.1" id="Calque_1" xmlns="http://www.w3.org/2000/svg" xmlns:xlink="http://www.w3.org/1999/xlink" x="0px" y="0px"
	 viewBox="0 0 198.1 51.4" style="enable-background:new 0 0 198.1 51.4;" xml:space="preserve">
<style type="text/css">
	.st0{fill:#11100E;}
	.st1{fill:#1D1E1C;}
	.st2{fill:#4BA2EA;}
	.st3{fill:#FF3B4A;}
	.st4{fill:#65CEE7;}
	.st5{fill:#87C966;}
	.st6{fill:url(#SVGID_1_);}
	.st7{fill:#AF27CC;}
</style>
<g>
	<g>
		<path class="st0" d="M198,49.1L198,49.1l-0.7-5.3l0,0c-0.1-0.5-0.5-0.8-0.9-0.8c-0.1,0-0.2,0-0.2,0c-0.1,0-0.1,0.1-0.2,0.1
			c-1.4,0.5-2.8,0.8-4.3,0.8c-1.4,0.1-2.8-0.4-3.8-1.4c-0.9-1.4-1.2-3-1.1-4.6V26.3h8.9c0.5,0,0.8-0.4,0.9-0.9v-5.2
			c0-0.5-0.4-0.9-0.9-0.9h-8.8v-7.4l0,0v-0.2c-0.1-0.5-0.4-0.8-0.9-0.9h-6.6c-0.5,0-0.9,0.4-0.9,0.9c0,0,0,0,0,0v7.5h-5.1
			c-0.5,0-0.9,0.4-0.9,0.9c0,0,0,0,0,0v5.1c0,0.4,0.3,0.8,0.7,0.9h5.3v13c0,4.1,0.9,7.1,2.8,9.1c1.9,2,4.8,3,8.6,3
			c1.6,0,3.1-0.2,4.7-0.5c1-0.2,2-0.5,3-1c0.3-0.1,0.6-0.4,0.6-0.8v0C198,49.1,198,49.1,198,49.1z"/>
		<path class="st1" d="M88.8,40.6l5.6-20.8c0.1-0.4,0.5-0.7,0.9-0.7h6.7c0.5,0,0.9,0.4,0.9,0.9c0,0.1,0,0.2,0,0.3l-9.8,29.5
			c-0.2,0.3-0.5,0.5-0.9,0.5h-6.4c-0.4,0-0.7-0.2-0.9-0.5l-6.9-20.1l-6.6,20.1v0c-0.2,0.3-0.5,0.5-0.8,0.5h-6.3
			c-0.4,0-0.7-0.2-0.9-0.6L53.8,20c0-0.5,0.4-0.9,0.9-0.9h7c0.3,0,0.6,0.2,0.8,0.5L68,40.5l6.5-20.8c0.1-0.3,0.5-0.6,0.9-0.6h5.8
			c0.4,0,0.7,0.2,0.9,0.5L88.8,40.6z"/>
		<path class="st1" d="M127.6,23.1c-1-1.6-2.4-2.9-4.1-3.7c-1.8-0.9-3.8-1.3-5.8-1.3c-2.8,0-5.4,0.8-7.7,2.3
			c-2.3,1.5-4.1,3.6-5.3,6.1c-1.3,2.6-1.9,5.4-1.9,8.3v0.7c0,2.8,0.7,5.5,1.9,8.1c1.1,2.4,2.9,4.4,5.2,5.8c2.2,1.4,4.8,2.1,7.4,2
			c1.8,0,3.5-0.3,5.1-0.9c2.1-0.8,4-2.2,5.2-4.1l0.1,3.2c0.1,0.5,0.5,0.8,0.9,0.8h6.3c0.5,0,0.9-0.4,0.9-0.9V20
			c0-0.5-0.4-0.9-0.9-0.9h-6.3c-0.5,0-0.8,0.3-0.9,0.8v0L127.6,23.1z M125.8,28.4c2.9,3.8,2.8,9.1-0.2,12.7
			c-3.2,3.3-8.5,3.4-11.8,0.2c-0.1-0.1-0.1-0.1-0.2-0.2c-1.4-1.6-2.2-3.6-2.3-5.8c-0.2-2.6,0.6-5.2,2.3-7.2c1.5-1.7,3.7-2.6,6-2.5
			C122,25.7,124.2,26.7,125.8,28.4L125.8,28.4z"/>
		<path class="st1" d="M149.6,19.9c-0.1-0.5-0.5-0.8-0.9-0.8h-6.3c-0.5,0-0.9,0.4-0.9,0.9v29.3c0,0.5,0.4,0.9,0.9,0.9h6.7
			c0.4,0,0.8-0.3,0.9-0.7V33.5c-0.1-2.1,0.5-4.1,1.7-5.8c1.2-1.4,2.9-2.1,4.8-2.1c3.7,0,5.6,2.4,5.6,7.3v16.7
			c0.1,0.4,0.5,0.7,0.9,0.7h6.7c0.5,0,0.9-0.4,0.9-0.9c0,0,0,0,0,0v-18c0-4.3-1-7.6-2.9-9.8c-1.9-2.3-4.8-3.4-8.4-3.4
			c-2,0-3.9,0.4-5.7,1.2c-1.6,0.8-2.9,2.1-3.8,3.6L149.6,19.9z"/>
	</g>
	<g>
		<path class="st2" d="M40.6,48.6c0.2,0.5,0.5,1.2,1,1.5c0.4,0.2,0.8,0.2,1.2,0.2H50c0.7,0,1.2-0.5,1.2-1.2c0-0.2,0-0.4-0.1-0.5
			c-0.5-0.9-0.9-1.7-1.4-2.6l-2.8-5.3c-0.2-0.2-0.3-0.5-0.4-0.8c0,0-0.1-0.2,0-0.6c0.1-0.3,1.8-3.7,1.9-4c0.7-2.1,9-22.3-14.7-24.3
			c0.2,0.1,0.4,0.2,0.5,0.3c2,1.3,3.7,3,5.1,5c2.9,4.6,3.4,10.4,1.3,15.4c-0.4,0.8-0.8,1.6-1.3,2.4c-0.8,1.3-1.8,2.5-3,3.5
			c-0.3,0.2-0.5,0.5-0.6,0.8c-0.1,0.3-0.1,0.6,0.1,0.9L40.6,48.6z"/>
		<path class="st3" d="M0.2,22.3C4,19.7,7.8,19.5,9,23.1c0,0.1,0,0.1,0,0.2c-1.1,9,5.3,17.1,14.2,18.3c1.5,0.2,3,0.2,4.5,0
			c0.4-0.1,0.7-0.1,1.1-0.2c0.3-0.1,0.5-0.1,0.8-0.1c0.4,5.1-15.6,6.5-25.6-5.8C1.6,32.5,0.4,26.4,0.2,22.3"/>
		<path class="st4" d="M49.8,32.6c-0.4,1.3-0.9,2.5-1.5,3.7c-0.1,0.3-0.3,0.5-0.4,0.7c-0.2,0.3-0.4,0.7-0.6,1
			c-0.3,0.4-0.5,0.8-0.7,1.2l0-0.1c0.1-0.3,0.3-0.7,0.4-1c3.6-11.1-2.2-23.1-13.1-27.3c-0.1-0.1-0.2-0.1-0.2-0.1l0,0
			c0.6,0.3-3-8.9,4.6-7.7c0.3,0.2,0.6,0.4,1,0.5c2.2,1.3,4.1,2.9,5.8,4.9c1.8,2.1,3.3,4.5,4.3,7c1.1,2.8,1.7,5.8,1.7,8.8
			C51,27.2,50.6,30,49.8,32.6z"/>
		<path class="st5" d="M40.2,6.9c0,0.6-0.1,1.1-0.3,1.7c-0.7,1.7-2.3,2.8-4.2,2.8c-0.7,0-1.5-0.2-2.1-0.5l0,0
			c-2.1-1.2-4.3-1.9-6.7-2.1C24,8.4,21,9,18.4,10.2c-1.3,0.6-2.5,1.4-3.6,2.3c-1,0.9-1.9,1.8-2.7,2.9c-1.5,2.1-2.5,4.5-3,7
			c-8.2-10,8.6-26,27.4-20l0,0c0.3,0.1,0.7,0.2,1,0.3c0.2,0.1,0.5,0.2,0.7,0.4h0C39.5,3.9,40.2,5.3,40.2,6.9z"/>
		
			<linearGradient id="SVGID_1_" gradientUnits="userSpaceOnUse" x1="0.3679" y1="232.1484" x2="37.5578" y2="232.1484" gradientTransform="matrix(1 0 0 1 -0.2 -218.7888)">
			<stop  offset="0" style="stop-color:#FFDA12"/>
			<stop  offset="1" style="stop-color:#EFE333"/>
		</linearGradient>
		<path class="st6" d="M37.4,2.7c-0.3-0.1-0.6-0.2-0.9-0.2l0,0c-1.4-0.4-2.9-0.6-4.4-0.7c-0.4,0-0.9,0-1.3,0
			C19.2,1.8,9.7,10.9,9.1,22.5c0,0.1,0,0.2,0,0.2l0,0c0,0.1,0,0.3-0.1,0.4l0,0c-0.4,2.1-2.2,3.7-4.4,3.6H4.5
			c-2.4-0.1-4.3-2.1-4.3-4.5c0-0.2,0-0.4,0-0.6l0,0c0.3-2.6,1.1-5.2,2.2-7.6c1.2-2.6,3-5,5.1-7c2.1-2,4.5-3.6,7.2-4.8
			c2.7-1.2,5.5-1.9,8.5-2.1c1.7-0.1,3.4-0.1,5,0c1.2,0.1,2.3,0.3,3.5,0.6C33.6,1.1,35.5,1.8,37.4,2.7z"/>
		<path class="st7" d="M33.4,48.5c-0.2,0.7-0.9,0.8-1.5,0.9c-0.7,0.2-1.5,0.3-2.2,0.4c-1.4,0.2-2.7,0.3-4.1,0.4
			c-1.4,0-2.9,0-4.3-0.3c-1.5-0.2-3-0.6-4.4-1c-3.5-1.1-6.6-3-9.3-5.5c-1.4-1.3-2.6-2.8-3.6-4.4c-1.5-2.4-2.7-5.1-3.3-7.9
			c-0.6-2.9-0.8-5.9-0.5-8.9v-0.1c0.6,10.9,9.2,19.6,20,20.4c0.6,0.1,1.2,0.1,1.8,0.1c2.6,0,5.2-0.5,7.7-1.4c0,0,0.1,0,0.1,0
			c0.3,0.1,0.6,0.3,0.7,0.7c0.6,1.1,1.1,2.2,1.6,3.3c0,0,0,0.1,0.1,0.1c0.3,0.6,0.6,1.1,0.8,1.7C33.3,47.5,33.6,48,33.4,48.5z"/>
	</g>
</g>
</svg>
