<svg xmlns="http://www.w3.org/2000/svg" width="400" height="400" viewBox="0 0 400 400"><defs><style>.a{fill:#fff;}</style></defs><rect width="400" height="400"/><path class="a" d="M67,234.24a29.6,29.6,0,0,1,17.15-5.79,18.19,18.19,0,0,1,8.34,1.62,9.75,9.75,0,0,1,4.57,5.26,27,27,0,0,1,1.45,9.79v16.62h7v9.79H85V246.41q0-6.34-5.74-6.35-4.12,0-9.75,2.79v18.89h7v9.79H55.88V246.86q0-6.8-5.54-6.8-3.93,0-9.79,2.79v18.89h7v9.79H20v-9.79h7V239H20V229H40.55v3.56a26,26,0,0,1,13.75-4.13Q62.52,228.45,67,234.24Z"/><path class="a" d="M153.89,250.25a22.14,22.14,0,0,1-3,11.45,21.35,21.35,0,0,1-8.09,8,22.45,22.45,0,0,1-11.2,2.87A23.2,23.2,0,0,1,120,269.67a20.38,20.38,0,0,1-8-8,23,23,0,0,1-2.85-11.45,22.28,22.28,0,0,1,2.93-11.36,21.25,21.25,0,0,1,8.07-7.95,24,24,0,0,1,22.82,0,20.91,20.91,0,0,1,8,7.95A22.64,22.64,0,0,1,153.89,250.25ZM131.52,262a7.27,7.27,0,0,0,6.21-3.1Q140,255.8,140,250c0-3.61-.75-6.44-2.24-8.47a7.36,7.36,0,0,0-6.29-3.06,7.06,7.06,0,0,0-6.19,3c-1.4,2-2.1,5-2.1,9.08a13.75,13.75,0,0,0,2.28,8.27A7.17,7.17,0,0,0,131.52,262Z"/><path class="a" d="M174.19,263h16v-7.28h8.94v15.81H158v-8.86l24.92-25H169.22v6.56H160V229h39.16v9Z"/><path class="a" d="M26.71,370.94V356.18H41.44v14.76Z"/><path class="a" d="M94.47,349.66a22.14,22.14,0,0,1-3,11.45,21.35,21.35,0,0,1-8.09,8A22.45,22.45,0,0,1,72.18,372a23.2,23.2,0,0,1-11.57-2.87,20.38,20.38,0,0,1-8-8,23,23,0,0,1-2.85-11.45,22.28,22.28,0,0,1,2.93-11.36,21.25,21.25,0,0,1,8.07-7.95,24,24,0,0,1,22.82,0,20.91,20.91,0,0,1,8,7.95A22.64,22.64,0,0,1,94.47,349.66ZM72.1,361.39a7.26,7.26,0,0,0,6.21-3.09q2.23-3.09,2.24-8.88c0-3.61-.75-6.44-2.24-8.47A7.36,7.36,0,0,0,72,337.89a7.06,7.06,0,0,0-6.19,3c-1.4,2-2.1,5-2.1,9.08A13.75,13.75,0,0,0,66,358.26,7.16,7.16,0,0,0,72.1,361.39Z"/><path class="a" d="M144.75,343.84v17.31h6.39v9.79h-20v-26a8,8,0,0,0-.91-4.35,3.4,3.4,0,0,0-3.05-1.35,13.45,13.45,0,0,0-7.81,2.79v19.13H126v9.79H99.44v-9.79h6.47V338.38H99.44v-9.95h19.94v4a20.57,20.57,0,0,1,12.46-4.57q6.36,0,9.63,4T144.75,343.84Z"/><path class="a" d="M200,352.54H168.29a12.12,12.12,0,0,0,3.38,7.74,10.16,10.16,0,0,0,7.46,2.85q5.06,0,9.87-5l10.51,3.4a22.62,22.62,0,0,1-8.61,7.82A26.59,26.59,0,0,1,178.72,372a27.82,27.82,0,0,1-12.43-2.65,19.72,19.72,0,0,1-8.38-7.5,21.44,21.44,0,0,1-3-11.41A22.74,22.74,0,0,1,158,338.66a22.29,22.29,0,0,1,8.38-8.23,23,23,0,0,1,11.46-3,21.68,21.68,0,0,1,11.69,3.09,20.26,20.26,0,0,1,7.67,8.78A31.35,31.35,0,0,1,200,352.54Zm-22.77-16.06a8.13,8.13,0,0,0-5.85,2.1c-1.47,1.4-2.39,3.55-2.77,6.43h17.72a10.24,10.24,0,0,0-3.1-6.17A8.49,8.49,0,0,0,177.23,336.48Z"/></svg>