<svg xmlns="http://www.w3.org/2000/svg" xmlns:xlink="http://www.w3.org/1999/xlink" width="198.14" height="51.38" viewBox="0 0 198.14 51.38"><defs><style>.a{fill:#11100e;}.b{fill:#1d1e1c;}.c{fill:#4ba2ea;}.d{fill:#ff3b4a;}.e{fill:#65cee7;}.f{fill:#87c966;}.g{fill:url(#a);}.h{fill:#af27cc;}</style><linearGradient id="a" x1="0.4" y1="-178.15" x2="37.6" y2="-178.15" gradientTransform="matrix(1, 0, 0, -1, -0.2, -164.79)" gradientUnits="userSpaceOnUse"><stop offset="0" stop-color="#ffda12"/><stop offset="1" stop-color="#efe333"/></linearGradient></defs><path class="a" d="M198,49.1h0l-.7-5.3h0a1,1,0,0,0-.9-.8h-.2c-.1,0-.1.1-.2.1a12.6,12.6,0,0,1-4.3.8,4.89,4.89,0,0,1-3.8-1.4,7.51,7.51,0,0,1-1.1-4.6V26.3h8.9c.5,0,.8-.4.9-.9V20.2a.9.9,0,0,0-.9-.9h-8.8V11.9h0v-.2a1.06,1.06,0,0,0-.9-.9h-6.6a.9.9,0,0,0-.9.9h0v7.5h-5.1a.9.9,0,0,0-.9.9h0v5.1a1,1,0,0,0,.7.9h5.3v13c0,4.1.9,7.1,2.8,9.1s4.8,3,8.6,3a25,25,0,0,0,4.7-.5,11.76,11.76,0,0,0,3-1,.87.87,0,0,0,.6-.8h0Z" transform="translate(-0.06 -0.02)"/><path class="b" d="M88.8,40.6l5.6-20.8a1,1,0,0,1,.9-.7H102a.9.9,0,0,1,.9.9v.3L93.1,49.8a1.05,1.05,0,0,1-.9.5H85.8a1.05,1.05,0,0,1-.9-.5L78,29.7,71.4,49.8h0a1,1,0,0,1-.8.5H64.3a1,1,0,0,1-.9-.6L53.8,20a.9.9,0,0,1,.9-.9h7a1,1,0,0,1,.8.5L68,40.5l6.5-20.8a1,1,0,0,1,.9-.6h5.8a1.05,1.05,0,0,1,.9.5Z" transform="translate(-0.06 -0.02)"/><path class="b" d="M127.6,23.1a9.76,9.76,0,0,0-4.1-3.7,13,13,0,0,0-5.8-1.3,13.92,13.92,0,0,0-7.7,2.3,14.92,14.92,0,0,0-5.3,6.1,18.36,18.36,0,0,0-1.9,8.3v.7a19.23,19.23,0,0,0,1.9,8.1,13.25,13.25,0,0,0,5.2,5.8,12.91,12.91,0,0,0,7.4,2,14.4,14.4,0,0,0,5.1-.9,10.55,10.55,0,0,0,5.2-4.1l.1,3.2a1,1,0,0,0,.9.8h6.3a.9.9,0,0,0,.9-.9V20a.9.9,0,0,0-.9-.9h-6.3a.88.88,0,0,0-.9.8h0Zm-1.8,5.3a10.22,10.22,0,0,1-.2,12.7,8.36,8.36,0,0,1-11.8.2l-.2-.2a9.34,9.34,0,0,1-2.3-5.8,9.93,9.93,0,0,1,2.3-7.2,7.52,7.52,0,0,1,6-2.5,9,9,0,0,1,6.2,2.8Z" transform="translate(-0.06 -0.02)"/><path class="b" d="M149.6,19.9a1,1,0,0,0-.9-.8h-6.3a.9.9,0,0,0-.9.9V49.3a.9.9,0,0,0,.9.9h6.7a1,1,0,0,0,.9-.7v-16a9.21,9.21,0,0,1,1.7-5.8,6.15,6.15,0,0,1,4.8-2.1c3.7,0,5.6,2.4,5.6,7.3V49.6a1,1,0,0,0,.9.7h6.7a.9.9,0,0,0,.9-.9h0v-18c0-4.3-1-7.6-2.9-9.8s-4.8-3.4-8.4-3.4a13.88,13.88,0,0,0-5.7,1.2,9.41,9.41,0,0,0-3.8,3.6Z" transform="translate(-0.06 -0.02)"/><path class="c" d="M40.6,48.6a3.07,3.07,0,0,0,1,1.5,2.54,2.54,0,0,0,1.2.2H50a1.16,1.16,0,0,0,1.2-1.2.75.75,0,0,0-.1-.5c-.5-.9-.9-1.7-1.4-2.6l-2.8-5.3a2,2,0,0,1-.4-.8.93.93,0,0,1,0-.6c.1-.3,1.8-3.7,1.9-4,.7-2.1,9-22.3-14.7-24.3a2.19,2.19,0,0,1,.5.3,18.66,18.66,0,0,1,5.1,5,16.81,16.81,0,0,1,1.3,15.4c-.4.8-.8,1.6-1.3,2.4a14.29,14.29,0,0,1-3,3.5,1.56,1.56,0,0,0-.6.8,1,1,0,0,0,.1.9Z" transform="translate(-0.06 -0.02)"/><path class="d" d="M.2,22.3c3.8-2.6,7.6-2.8,8.8.8v.2A16.48,16.48,0,0,0,23.2,41.6a17,17,0,0,0,4.5,0c.4-.1.7-.1,1.1-.2a2.2,2.2,0,0,1,.8-.1C30,46.4,14,47.8,4,35.5,1.6,32.5.4,26.4.2,22.3" transform="translate(-0.06 -0.02)"/><path class="e" d="M49.8,32.6a23.88,23.88,0,0,1-1.5,3.7,4.35,4.35,0,0,1-.4.7c-.2.3-.4.7-.6,1a7.46,7.46,0,0,0-.7,1.2v-.1c.1-.3.3-.7.4-1A22,22,0,0,0,33.9,10.8a.31.31,0,0,0-.2-.1h0c.6.3-3-8.9,4.6-7.7a3.13,3.13,0,0,0,1,.5,22.57,22.57,0,0,1,5.8,4.9,25.41,25.41,0,0,1,4.3,7,24.16,24.16,0,0,1,1.7,8.8A32.11,32.11,0,0,1,49.8,32.6Z" transform="translate(-0.06 -0.02)"/><path class="f" d="M40.2,6.9a5.08,5.08,0,0,1-.3,1.7,4.47,4.47,0,0,1-4.2,2.8,5,5,0,0,1-2.1-.5h0a15.94,15.94,0,0,0-6.7-2.1,15.5,15.5,0,0,0-8.5,1.4,16.94,16.94,0,0,0-3.6,2.3,18.57,18.57,0,0,0-2.7,2.9,18.16,18.16,0,0,0-3,7c-8.2-10,8.6-26,27.4-20h0c.3.1.7.2,1,.3a2.51,2.51,0,0,1,.7.4h0A4.32,4.32,0,0,1,40.2,6.9Z" transform="translate(-0.06 -0.02)"/><path class="g" d="M37.4,2.7a2.92,2.92,0,0,0-.9-.2h0a21.27,21.27,0,0,0-4.4-.7H30.8A21.75,21.75,0,0,0,9.1,22.5v.2h0a.6.6,0,0,1-.1.4H9a4.32,4.32,0,0,1-4.4,3.6H4.5A4.51,4.51,0,0,1,.2,22.2v-.6h0A25.48,25.48,0,0,1,2.4,14,23.34,23.34,0,0,1,7.5,7a25.19,25.19,0,0,1,7.2-4.8A24.7,24.7,0,0,1,23.2.1a41.69,41.69,0,0,1,5,0,21.36,21.36,0,0,1,3.5.6A25.86,25.86,0,0,1,37.4,2.7Z" transform="translate(-0.06 -0.02)"/><path class="h" d="M33.4,48.5c-.2.7-.9.8-1.5.9a17,17,0,0,1-2.2.4c-1.4.2-2.7.3-4.1.4a20.75,20.75,0,0,1-4.3-.3,31.29,31.29,0,0,1-4.4-1,24.44,24.44,0,0,1-9.3-5.5A21.66,21.66,0,0,1,4,39,25,25,0,0,1,.7,31.1a29.46,29.46,0,0,1-.5-8.9v-.1a21.64,21.64,0,0,0,20,20.4,10.87,10.87,0,0,0,1.8.1,22.77,22.77,0,0,0,7.7-1.4h.1a1,1,0,0,1,.7.7c.6,1.1,1.1,2.2,1.6,3.3a.1.1,0,0,0,.1.1A13,13,0,0,1,33,47C33.3,47.5,33.6,48,33.4,48.5Z" transform="translate(-0.06 -0.02)"/></svg>