<svg xmlns="http://www.w3.org/2000/svg" width="923.1" height="249" viewBox="0 0 923.1 249"><defs><style>.a{fill:#de5833;}.b{fill:#fff;}.c{fill:#fed30a;fill-rule:evenodd;}.d{fill:#2d4f8d;}.e{fill:#d5d7d8;}.f{fill:#67bd47;}.g{fill:#43a347;}.h{fill:#4c4c4c;}</style></defs><circle class="a" cx="124.5" cy="124.5" r="124.5"/><path class="b" d="M230.1,79.7a116.77,116.77,0,0,0-24.6-36.6,109.33,109.33,0,0,0-36.6-24.6,109.52,109.52,0,0,0-44.4-9,109.83,109.83,0,0,0-44.4,9A116.77,116.77,0,0,0,43.5,43.1,108.34,108.34,0,0,0,18.9,79.7a109.52,109.52,0,0,0-9,44.4,111.21,111.21,0,0,0,9,44.4,116.77,116.77,0,0,0,24.6,36.6,109.33,109.33,0,0,0,36.6,24.6,109.52,109.52,0,0,0,44.4,9,109.83,109.83,0,0,0,44.4-9,116.77,116.77,0,0,0,36.6-24.6,109.33,109.33,0,0,0,24.6-36.6,109.52,109.52,0,0,0,9-44.4A112.61,112.61,0,0,0,230.1,79.7ZM149.5,227.2c-6.6-11.1-23.8-42.7-23.8-65.7,0-53.4,36.2-7.8,36.2-50.5,0-10.3-4.9-46-36.2-53.4-7.8-10.3-25.9-20.1-54.2-16a49,49,0,0,1,10.3,4.1s-10.3,1.2-10.7,8.6c0,0,20.5-1.2,32.5,2.9-26.7,3.3-40.7,17.3-38.2,43.1C69.1,136.5,84.3,201.4,89.6,224a105.65,105.65,0,1,1,141.3-99.5,106.5,106.5,0,0,1-81.4,102.7Z" transform="translate(0 0)"/><path class="c" d="M119.1,141.7c0-13.6,18.9-18.1,25.9-18.1,19.3,0,46-12.3,52.6-11.9s11.1,2.9,11.1,6.2c0,4.5-38.2,21.8-53,20.1-14-1.2-17.3.4-17.3,6.2,0,4.9,10.3,9.4,21.4,9.4,16.8,0,33.3-7.4,38.2-3.7,4.1,3.3-11.5,14.4-29.6,14.4s-49.3-9-49.3-22.6Z" transform="translate(0 0)"/><path class="d" d="M152,83.4c-4.9-6.6-14-6.6-16.8.8C139.7,80.5,145.8,79.7,152,83.4Z" transform="translate(0 0)"/><path class="d" d="M96.5,83.8c-7-4.1-18.5-4.5-17.7,8.2C82.6,84.2,86.7,82.6,96.5,83.8Z" transform="translate(0 0)"/><path class="d" d="M147.9,95.7a7,7,0,0,0,0,14,6.72,6.72,0,0,0,7-7A7,7,0,0,0,147.9,95.7Zm2.5,6.2a2.1,2.1,0,1,1,2.1-2.1A2,2,0,0,1,150.4,101.9Z" transform="translate(0 0)"/><path class="d" d="M94.9,99.4a7.8,7.8,0,1,0,7.8,7.8A8.08,8.08,0,0,0,94.9,99.4Zm2.9,7.4a2.69,2.69,0,0,1-2.5-2.5,2.5,2.5,0,0,1,5,0C99.8,105.6,99,106.8,97.8,106.8Z" transform="translate(0 0)"/><path class="e" d="M77.6,65.7c-9.9,7.4-14.8,18.5-13.1,34.1C68.2,136,83.4,200.9,88.7,223.5a31.36,31.36,0,0,0,5.8,1.6c-3.3-14-19.3-80.5-26.3-131.9-2.1-13.1,3.3-20.9,9.4-27.5Z" transform="translate(0 0)"/><path class="e" d="M102.3,57.1h1.2C92.4,51.8,75.6,51.8,71,51.8a5.87,5.87,0,0,0-.8,2.9C70.2,54.2,90.4,53.4,102.3,57.1Z" transform="translate(0 0)"/><path class="e" d="M83,46c-3.3-2.1-6.2-3.7-7.8-4.5-1.2,0-2.9.4-4.1.4A49,49,0,0,1,81.4,46H81A2.77,2.77,0,0,1,83,46Z" transform="translate(0 0)"/><path class="f" d="M166.4,183.6c-3.7-.8-17.3,9-22.2,12.7-.4-.8-.4-1.6-.8-2.1-.8-2.1-14-.8-17.3,2.5-8.2-4.1-24.6-11.5-25.1-7-.4,6.2,0,32,3.3,34.1,2.5,1.2,16.4-6.2,23.8-10.3,4.5,1.2,12.7,0,15.6-1.6a3.08,3.08,0,0,0,.8-1.2c6.6,2.5,20.1,7.4,23.4,6.6,3.8-1.2,3-32.4-1.5-33.7Z" transform="translate(0 0)"/><path class="g" d="M128.6,213.6c-4.5-.8-2.9-5.3-2.9-15.6a2.91,2.91,0,0,0-1.6,2.5c0,10.3-1.6,14.8,2.9,15.6,4.5,1.2,12.7,0,15.6-1.6a7.77,7.77,0,0,0,1.2-2.1c-3.7,1.2-11.1,2.5-15.2,1.2Z" transform="translate(0 0)"/><path class="h" d="M295.8,157.7V83.8h26.7c25.5,0,37,18.5,37,36.2,0,18.9-11.5,37.8-37,37.8H295.8Zm8.6-8.6h18.5c19.7,0,28.3-14.8,28.3-29.2,0-13.6-9-27.9-28.3-27.9H304.4Z" transform="translate(0 0)"/><path class="h" d="M393.1,158.6c-14,0-22.6-9.4-22.6-23.8V106h8.2v28.3c0,10.7,6.2,16.8,16,16.8,9.4,0,16.4-7.4,16.4-17.3V105.9h8.2v51.8h-7l-.4-9-1.2,1.6c-4.4,5.4-10.2,7.9-17.6,8.3Z" transform="translate(0 0)"/><path class="h" d="M458.5,158.6c-13.6,0-27.1-8.2-27.1-26.7,0-16,10.7-26.7,27.1-26.7,7.4,0,13.1,2.5,18.5,7.4l-4.9,4.9a19.23,19.23,0,0,0-13.1-4.9c-11.5,0-19.3,7.8-19.3,19.3,0,13.1,9.4,19.3,19.3,19.3,5.3,0,10.3-1.6,14-5.3l4.9,4.9c-5.9,4.9-12.5,7.8-19.4,7.8Z" transform="translate(0 0)"/><path class="h" d="M495.4,157.7h-7.8V83.8h7.8v44.8L517.6,106h10.7l-24.6,24.2,27.5,27.1v.4H520.9l-25.5-25.4Z" transform="translate(0 0)"/><path class="h" d="M540.6,157.7V83.8h26.7c25.5,0,37,18.5,37,36.2,0,18.9-11.5,37.8-37,37.8H540.6Zm9.1-8.6h18.5c19.7,0,28.3-14.8,28.3-29.2,0-13.6-9-27.9-28.3-27.9H549.7Z" transform="translate(0 0)"/><path class="h" d="M638,158.6c-14,0-22.6-9.4-22.6-23.8V106h8.2v28.3c0,10.7,6.2,16.8,16,16.8,9.4,0,16.4-7.4,16.4-17.3V105.9h8.2v51.8h-7.4l-.4-9-1.2,1.6c-3.7,5.4-9.8,7.9-17.2,8.3Z" transform="translate(0 0)"/><path class="h" d="M703.3,158.6c-13.6,0-27.1-8.2-27.1-26.7,0-16,10.7-26.7,27.1-26.7,7.4,0,13.1,2.5,18.5,7.4l-4.9,4.9a19.23,19.23,0,0,0-13.1-4.9c-11.5,0-19.3,7.8-19.3,19.3,0,13.1,9.4,19.3,19.3,19.3,5.3,0,10.3-1.6,14-5.3l4.9,4.9-.4.4a27.18,27.18,0,0,1-19,7.4Z" transform="translate(0 0)"/><path class="h" d="M740.7,157.7h-7.8V83.8h7.8v44.8L762.9,106h10.3L749,130.2l27.1,27.1v.4H765.8l-25.1-25.5Z" transform="translate(0 0)"/><path class="h" d="M817.5,159c-28.3,0-38.2-20.5-38.2-37.4,0-11.5,3.7-21.4,10.7-28.3s16.4-10.7,27.5-10.7a37.82,37.82,0,0,1,26.7,10.7l-4.9,5.8a33.38,33.38,0,0,0-21.8-8.6c-20.5,0-30,16-30,31.2,0,14.8,9.4,29.6,30.4,29.6a33.82,33.82,0,0,0,20.5-7.4l.4-.4V124.9h-23v-7.4h30.8v28.8c-8.1,8.6-17.6,12.7-29.1,12.7Z" transform="translate(0 0)"/><path class="h" d="M883.2,158.6c-15.6,0-26.7-11.1-26.7-26.7s11.5-27.1,26.7-27.1c16,0,27.1,11.1,27.1,27.1C909.5,147.1,898.4,158.6,883.2,158.6Zm0-46.9c-11.1,0-18.9,8.2-18.9,19.7,0,11.1,7.8,19.3,18.9,19.3s18.9-7.8,19.3-19.3C901.7,120.4,894.3,111.7,883.2,111.7Z" transform="translate(0 0)"/><path class="h" d="M917.7,163.1c.8-.4,1.2-.8,1.2-1.6a2.08,2.08,0,0,0-.8-1.6c-.4-.4-1.2-.4-2.5-.4s-2.1,0-2.5.4v6.6h1.6v-2.6h.8a1.06,1.06,0,0,1,1.2,1.2,3,3,0,0,1,.4,1.6h1.6c0-.4-.4-.8-.4-1.6.7-1.2.3-1.6-.6-2Zm-1.6-.4h-.8v-2.1h.8c.8,0,1.2.4,1.2.8C917.7,162.7,916.9,162.7,916.1,162.7Z" transform="translate(0 0)"/><path class="h" d="M916.1,156.5a6.88,6.88,0,0,0-7,6.6,7,7,0,1,0,14,0C923.1,159.4,920.2,156.5,916.1,156.5Zm.4,11.9a5.4,5.4,0,0,1-5.3-5.3,5.15,5.15,0,0,1,5.3-5.3,5.4,5.4,0,0,1,5.3,5.3C921.4,166,919.4,168.4,916.5,168.4Z" transform="translate(0 0)"/></svg>